<svg xmlns="http://www.w3.org/2000/svg" xmlns:xlink="http://www.w3.org/1999/xlink" version="1.1" width="256" height="256" viewBox="0 0 256 256" xml:space="preserve">

<defs>
</defs>
<g style="stroke: none; stroke-width: 0; stroke-dasharray: none; stroke-linecap: butt; stroke-linejoin: miter; stroke-miterlimit: 10; fill: none; fill-rule: nonzero; opacity: 1;" transform="translate(1.4065934065934016 1.4065934065934016) scale(2.81 2.81)" >
	<path d="M 7.461 36.296 v 7.172 v 5.105 v 39.043 C 7.461 88.933 8.529 90 9.845 90 h 70.309 c 1.317 0 2.384 -1.067 2.384 -2.384 V 48.573 v -5.105 v -7.172 H 7.461 z" style="stroke: none; stroke-width: 1; stroke-dasharray: none; stroke-linecap: butt; stroke-linejoin: miter; stroke-miterlimit: 10; fill: rgb(226,228,231); fill-rule: nonzero; opacity: 1;" transform=" matrix(1 0 0 1 0 0) " stroke-linecap="round" />
	<rect x="16.8" y="54.87" rx="0" ry="0" width="27.32" height="24.75" style="stroke: none; stroke-width: 1; stroke-dasharray: none; stroke-linecap: butt; stroke-linejoin: miter; stroke-miterlimit: 10; fill: rgb(0,198,200); fill-rule: nonzero; opacity: 1;" transform=" matrix(1 0 0 1 0 0) "/>
	<rect x="53.02" y="54.87" rx="0" ry="0" width="20.18" height="35.13" style="stroke: none; stroke-width: 1; stroke-dasharray: none; stroke-linecap: butt; stroke-linejoin: miter; stroke-miterlimit: 10; fill: rgb(0,198,200); fill-rule: nonzero; opacity: 1;" transform=" matrix(1 0 0 1 0 0) "/>
	<path d="M 73.563 0 H 16.437 c -1.94 0 -3.512 1.573 -3.512 3.512 v 18.941 h 64.152 V 3.512 C 77.076 1.573 75.503 0 73.563 0 z" style="stroke: none; stroke-width: 1; stroke-dasharray: none; stroke-linecap: butt; stroke-linejoin: miter; stroke-miterlimit: 10; fill: rgb(240,184,58); fill-rule: nonzero; opacity: 1;" transform=" matrix(1 0 0 1 0 0) " stroke-linecap="round" />
	<path d="M 53.739 35.118 c 0 4.826 -3.913 8.739 -8.739 8.739 s -8.739 -3.913 -8.739 -8.739 l 1.209 -12.665 h 15.06 L 53.739 35.118 z" style="stroke: none; stroke-width: 1; stroke-dasharray: none; stroke-linecap: butt; stroke-linejoin: miter; stroke-miterlimit: 10; fill: rgb(252,80,42); fill-rule: nonzero; opacity: 1;" transform=" matrix(1 0 0 1 0 0) " stroke-linecap="round" />
	<path d="M 18.784 35.118 c 0 4.826 3.913 8.739 8.739 8.739 s 8.739 -3.913 8.739 -8.739 l 1.209 -12.665 H 24.542 L 18.784 35.118 z" style="stroke: none; stroke-width: 1; stroke-dasharray: none; stroke-linecap: butt; stroke-linejoin: miter; stroke-miterlimit: 10; fill: rgb(230,13,40); fill-rule: nonzero; opacity: 1;" transform=" matrix(1 0 0 1 0 0) " stroke-linecap="round" />
	<path d="M 1.306 35.118 c 0 4.826 3.913 8.739 8.739 8.739 s 8.739 -3.913 8.739 -8.739 l 5.759 -12.665 H 12.924 L 1.306 35.118 z" style="stroke: none; stroke-width: 1; stroke-dasharray: none; stroke-linecap: butt; stroke-linejoin: miter; stroke-miterlimit: 10; fill: rgb(252,80,42); fill-rule: nonzero; opacity: 1;" transform=" matrix(1 0 0 1 0 0) " stroke-linecap="round" />
	<path d="M 71.216 35.118 c 0 4.826 -3.912 8.739 -8.739 8.739 s -8.739 -3.913 -8.739 -8.739 L 52.53 22.453 h 12.928 L 71.216 35.118 z" style="stroke: none; stroke-width: 1; stroke-dasharray: none; stroke-linecap: butt; stroke-linejoin: miter; stroke-miterlimit: 10; fill: rgb(230,13,40); fill-rule: nonzero; opacity: 1;" transform=" matrix(1 0 0 1 0 0) " stroke-linecap="round" />
	<path d="M 88.694 35.118 c 0 4.826 -3.912 8.739 -8.739 8.739 c -4.826 0 -8.739 -3.913 -8.739 -8.739 l -5.759 -12.665 h 11.618 L 88.694 35.118 z" style="stroke: none; stroke-width: 1; stroke-dasharray: none; stroke-linecap: butt; stroke-linejoin: miter; stroke-miterlimit: 10; fill: rgb(252,80,42); fill-rule: nonzero; opacity: 1;" transform=" matrix(1 0 0 1 0 0) " stroke-linecap="round" />
	<path d="M 60.644 73.317 h -3.549 c -0.565 0 -1.023 -0.457 -1.023 -1.023 c 0 -0.565 0.457 -1.023 1.023 -1.023 h 3.549 c 0.565 0 1.023 0.457 1.023 1.023 C 61.667 72.859 61.209 73.317 60.644 73.317 z" style="stroke: none; stroke-width: 1; stroke-dasharray: none; stroke-linecap: butt; stroke-linejoin: miter; stroke-miterlimit: 10; fill: rgb(43,234,236); fill-rule: nonzero; opacity: 1;" transform=" matrix(1 0 0 1 0 0) " stroke-linecap="round" />
	<path d="M 22.477 65.115 c -0.262 0 -0.523 -0.1 -0.723 -0.3 c -0.4 -0.399 -0.4 -1.047 0 -1.446 l 3.213 -3.213 c 0.4 -0.4 1.047 -0.4 1.446 0 c 0.4 0.4 0.4 1.047 0 1.446 L 23.2 64.815 C 23 65.015 22.738 65.115 22.477 65.115 z" style="stroke: none; stroke-width: 1; stroke-dasharray: none; stroke-linecap: butt; stroke-linejoin: miter; stroke-miterlimit: 10; fill: rgb(43,234,236); fill-rule: nonzero; opacity: 1;" transform=" matrix(1 0 0 1 0 0) " stroke-linecap="round" />
	<path d="M 23.687 71.845 c -0.262 0 -0.523 -0.1 -0.723 -0.3 c -0.4 -0.4 -0.4 -1.047 0 -1.446 l 8.733 -8.732 c 0.4 -0.4 1.047 -0.4 1.446 0 c 0.4 0.4 0.4 1.047 0 1.446 l -8.733 8.732 C 24.21 71.745 23.949 71.845 23.687 71.845 z" style="stroke: none; stroke-width: 1; stroke-dasharray: none; stroke-linecap: butt; stroke-linejoin: miter; stroke-miterlimit: 10; fill: rgb(43,234,236); fill-rule: nonzero; opacity: 1;" transform=" matrix(1 0 0 1 0 0) " stroke-linecap="round" />
	<path d="M 42.044 12.374 h -7.048 c -0.565 0 -1.023 -0.458 -1.023 -1.023 s 0.458 -1.023 1.023 -1.023 h 7.048 c 0.565 0 1.023 0.458 1.023 1.023 S 42.609 12.374 42.044 12.374 z" style="stroke: none; stroke-width: 1; stroke-dasharray: none; stroke-linecap: butt; stroke-linejoin: miter; stroke-miterlimit: 10; fill: rgb(230,13,40); fill-rule: nonzero; opacity: 1;" transform=" matrix(1 0 0 1 0 0) " stroke-linecap="round" />
	<path d="M 27.39 18.319 h -3.793 c -0.565 0 -1.023 -0.458 -1.023 -1.023 c 0 -0.565 0.458 -1.023 1.023 -1.023 h 3.793 c 0.549 0 0.996 -0.447 0.996 -0.996 v -1.774 c 0 -0.549 -0.447 -0.996 -0.996 -0.996 h -2.112 c -1.677 0 -3.041 -1.364 -3.041 -3.041 V 7.692 c 0 -1.677 1.364 -3.041 3.041 -3.041 H 28 c 0.565 0 1.023 0.458 1.023 1.023 S 28.565 6.697 28 6.697 h -2.722 c -0.549 0 -0.996 0.447 -0.996 0.996 v 1.774 c 0 0.549 0.447 0.996 0.996 0.996 h 2.112 c 1.677 0 3.041 1.364 3.041 3.041 v 1.774 C 30.431 16.955 29.067 18.319 27.39 18.319 z" style="stroke: none; stroke-width: 1; stroke-dasharray: none; stroke-linecap: butt; stroke-linejoin: miter; stroke-miterlimit: 10; fill: rgb(230,13,40); fill-rule: nonzero; opacity: 1;" transform=" matrix(1 0 0 1 0 0) " stroke-linecap="round" />
	<path d="M 34.996 18.319 c -0.565 0 -1.023 -0.458 -1.023 -1.023 V 5.674 c 0 -0.565 0.458 -1.023 1.023 -1.023 s 1.023 0.458 1.023 1.023 v 11.623 C 36.019 17.861 35.561 18.319 34.996 18.319 z" style="stroke: none; stroke-width: 1; stroke-dasharray: none; stroke-linecap: butt; stroke-linejoin: miter; stroke-miterlimit: 10; fill: rgb(230,13,40); fill-rule: nonzero; opacity: 1;" transform=" matrix(1 0 0 1 0 0) " stroke-linecap="round" />
	<path d="M 42.044 18.319 c -0.565 0 -1.023 -0.458 -1.023 -1.023 V 5.674 c 0 -0.565 0.458 -1.023 1.023 -1.023 s 1.023 0.458 1.023 1.023 v 11.623 C 43.067 17.861 42.609 18.319 42.044 18.319 z" style="stroke: none; stroke-width: 1; stroke-dasharray: none; stroke-linecap: butt; stroke-linejoin: miter; stroke-miterlimit: 10; fill: rgb(230,13,40); fill-rule: nonzero; opacity: 1;" transform=" matrix(1 0 0 1 0 0) " stroke-linecap="round" />
	<path d="M 52.661 18.319 h -2.25 c -1.977 0 -3.585 -1.608 -3.585 -3.584 V 7.979 c 0 -1.976 1.608 -3.584 3.585 -3.584 h 2.25 c 1.976 0 3.584 1.608 3.584 3.584 v 6.756 C 56.245 16.711 54.637 18.319 52.661 18.319 z M 50.411 6.44 c -0.849 0 -1.539 0.69 -1.539 1.539 v 6.756 c 0 0.848 0.69 1.539 1.539 1.539 h 2.25 c 0.848 0 1.538 -0.69 1.538 -1.539 V 7.979 c 0 -0.848 -0.69 -1.539 -1.538 -1.539 H 50.411 z" style="stroke: none; stroke-width: 1; stroke-dasharray: none; stroke-linecap: butt; stroke-linejoin: miter; stroke-miterlimit: 10; fill: rgb(230,13,40); fill-rule: nonzero; opacity: 1;" transform=" matrix(1 0 0 1 0 0) " stroke-linecap="round" />
	<path d="M 64.476 13.216 h -4.254 c -0.565 0 -1.023 -0.458 -1.023 -1.023 V 5.674 c 0 -0.565 0.457 -1.023 1.023 -1.023 h 4.254 c 1.813 0 3.288 1.475 3.288 3.287 v 1.99 C 67.764 11.741 66.289 13.216 64.476 13.216 z M 61.245 11.17 h 3.231 c 0.685 0 1.242 -0.557 1.242 -1.241 v -1.99 c 0 -0.685 -0.557 -1.242 -1.242 -1.242 h -3.231 V 11.17 z" style="stroke: none; stroke-width: 1; stroke-dasharray: none; stroke-linecap: butt; stroke-linejoin: miter; stroke-miterlimit: 10; fill: rgb(230,13,40); fill-rule: nonzero; opacity: 1;" transform=" matrix(1 0 0 1 0 0) " stroke-linecap="round" />
	<path d="M 60.222 18.319 c -0.565 0 -1.023 -0.458 -1.023 -1.023 v -5.104 c 0 -0.565 0.457 -1.023 1.023 -1.023 s 1.023 0.458 1.023 1.023 v 5.104 C 61.245 17.861 60.787 18.319 60.222 18.319 z" style="stroke: none; stroke-width: 1; stroke-dasharray: none; stroke-linecap: butt; stroke-linejoin: miter; stroke-miterlimit: 10; fill: rgb(230,13,40); fill-rule: nonzero; opacity: 1;" transform=" matrix(1 0 0 1 0 0) " stroke-linecap="round" />
</g>
</svg>